<?xml version="1.0" encoding="utf-8"?>
<svg xmlns="http://www.w3.org/2000/svg" version="1.1" width="1025" height="101.969" viewBox="28 587.388 1025 101.969">
  <path d="M0 0C-29.807 0-55.306-21.732-55.306-49.985-55.306-78.237-29.808-99.969 0-99.969 12.534-99.969 24.724-96.159 34.619-88.968L35.662-88.211 27.746-80.828 26.954-81.305C17.081-87.247 5.382-89.176-6.099-86.818-17.553-84.466-28.547-77.809-34.303-68.12-40.753-57.26-41.853-43.694-36.581-32.223-33.292-25.065-27.765-19.248-20.49-15.411-4.768-7.119 14.104-10.856 26.65-22.429L27.474-23.19 37.85-13.512 36.905-12.745C26.692-4.476 13.519 0 0 0" fill="#a98563" fill-rule="evenodd" transform="matrix(1,0,0,-1,527.3247,588.388)"/>
  <path d="M0 0V-98.015H75.986V-87.241H14.541V0Z" fill="#a98563" fill-rule="evenodd" transform="matrix(1,0,0,-1,342.1075,589.36587)"/>
  <path d="M0 0 70.267-58.432V-75.226H82.529V22.789H70.242V-11.407L70.261-39.515-4.664 22.789H-12.262V-75.226H0Z" fill="#a98563" fill-rule="evenodd" transform="matrix(1,0,0,-1,802.4165,612.1543)"/>
  <path d="M0 0C-6.45 10.86-7.55 24.426-2.278 35.897 1.011 43.055 6.538 48.872 13.814 52.709 33.76 63.229 57.912 54.276 68.606 36.269 75.057 25.41 76.156 11.843 70.884 .372 67.595-6.785 62.068-12.602 54.792-16.438 34.846-26.959 10.694-18.005 0 0M-21.002 18.135C-21.002-10.119 4.496-31.849 34.303-31.849 64.11-31.849 89.608-10.117 89.608 18.135 89.608 46.388 64.11 68.12 34.303 68.12 4.496 68.12-21.002 46.388-21.002 18.135" fill="#a98563" fill-rule="evenodd" transform="matrix(1,0,0,-1,962.3919,656.5078)"/>
  <path d="M0 0V-75.716C0-106.73 64.925-106.73 64.925-75.716V0H52.641L52.642-76.05C52.642-92.071 14.541-92.696 14.541-74.688V0Z" fill="#a98563" fill-rule="evenodd" transform="matrix(1,0,0,-1,206.7796,589.36587)"/>
  <path d="M0 0-17.652-30.571-17.713-30.68-44.72-77.456-78.32-18.549-78.341-18.513-78.423-18.389C-78.927-17.633-79.374-16.833-79.769-16.014L-79.786-15.978-88.901 0H-104.85L-48.434-98.014H-32.994L-38.538-88.293 12.438 0Z" fill="#a98563" fill-rule="evenodd" transform="matrix(1,0,0,-1,133.85,589.3738)"/>
  <path d="M0 0H-58.797L-65.016-10.773H6.145 11.506 22.094L-34.322 87.242H-49.762L-44.218 77.522-95.194-10.773H-82.756L-65.104 19.8-65.043 19.908-38.036 66.684-4.416 7.742-4.333 7.618C-3.829 6.86-3.382 6.061-2.988 5.242L-2.97 5.206Z" fill="#a98563" fill-rule="evenodd" transform="matrix(1,0,0,-1,712.7034,676.61599)"/>
</svg>
